<svg id="Groupe_3_copie" data-name="Groupe 3 copie" xmlns="http://www.w3.org/2000/svg" width="393.219" height="250.531" viewBox="0 0 393.219 250.531">
  <defs>
    <style>
      .cls-1, .cls-3 {
        fill: #ee7f01;
      }

      .cls-1, .cls-2 {
        fill-rule: evenodd;
      }
    </style>
  </defs>
  <path id="cool" class="cls-1" d="M428.784,371.3c17.34,0,31.378-8.12,38.81-21.194l-19.13-7.019c-4.266,7.982-12.661,10.322-19.543,10.322-13.074,0-23.121-10.46-23.121-29.727,0-18.717,10.047-29.727,22.846-29.727,7.432,0,15,3.027,19.13,10.459l19.267-7.019c-7.018-12.937-20.368-21.332-37.709-21.332-28.488,0-46.517,18.58-46.517,47.619C382.817,352.994,400.158,371.3,428.784,371.3Zm53.4-47.618c0,28.626,19.4,47.618,47.618,47.618S577.7,352.306,577.7,323.68s-19.681-47.619-47.894-47.619S482.185,295.054,482.185,323.68Zm22.983,0c0-19.543,11.285-29.727,24.635-29.727,13.487,0,24.773,10.184,24.773,29.727S543.29,353.407,529.8,353.407C516.453,353.407,505.168,343.222,505.168,323.68Zm90.422,0c0,28.626,19.4,47.618,47.618,47.618S691.1,352.306,691.1,323.68s-19.68-47.619-47.893-47.619S595.59,295.054,595.59,323.68Zm22.983,0c0-19.543,11.285-29.727,24.635-29.727,13.487,0,24.772,10.184,24.772,29.727s-11.285,29.727-24.772,29.727C629.858,353.407,618.573,343.222,618.573,323.68Zm113.4,26.836v-72.8H710.233v91.933h65.785v-19.13h-44.04Z" transform="translate(-382.812 -120.781)"/>
  <path id="gens" class="cls-2" d="M430.5,272.191c13.212,0,22.3-3.853,28.214-11.836l3.027,10.185h14.313V218.517H433.663v17.616h20.644v2.615c0,11.7-10.46,15.552-20.507,15.552-14.313,0-23.946-10.735-23.946-30,0-19.406,10.459-29.452,23.534-29.452,9.5,0,15.551,3.991,18.579,8.808l18.717-7.707c-7.294-12.524-20.919-18.992-37.021-18.992-27.8,0-46.793,18.3-46.793,47.343C386.87,253.612,403.523,272.191,430.5,272.191Zm64.824-1.651H566.06V251.41H517.065V232.83H546.93V213.7H517.065V197.736H566.06v-19.13H495.321V270.54Zm88.08-91.934V270.54H604.32V205.03l35.507,65.51h27.8V178.606H646.571v65.51l-35.508-65.51H583.4Zm101.982,70.326c5.643,14.726,19.68,23.259,39.774,23.259,18.992,0,38.81-10.872,38.81-30.415,0-18.992-18.167-23.672-33.03-26.7L718.551,212.6c-6.331-1.238-10.46-4.679-10.46-9.358,0-5.643,6.331-8.808,14.726-8.808,8.67,0,15,3.441,17.478,9.634l19.681-7.157c-5.781-14.175-20.369-19.955-35.232-19.955-18.442,0-38.948,8.808-38.948,28.488,0,15.689,12.937,22.983,27.938,25.873l11.147,2.2c9.909,1.927,16.791,5.093,16.791,11.561,0,7.156-8.533,9.634-16.378,9.634-10.184,0-17.616-4.129-20.093-12.937Z" transform="translate(-382.812 -120.781)"/>
  <path id="LES" class="cls-2" d="M521.808,161.891v-40.2H509.8v50.761h36.323V161.891H521.808Zm33.36,10.563h39.058V161.891H567.174V151.633h16.49V141.07h-16.49v-8.815h27.052V121.693H555.168v50.761Zm47.189-11.93c3.116,8.13,10.867,12.842,21.961,12.842,10.487,0,21.429-6,21.429-16.794,0-10.486-10.03-13.07-18.237-14.742l-6.839-1.368c-3.5-.684-5.775-2.583-5.775-5.167,0-3.116,3.5-4.863,8.13-4.863,4.788,0,8.283,1.9,9.651,5.319l10.867-3.952c-3.192-7.826-11.247-11.018-19.454-11.018-10.182,0-21.5,4.863-21.5,15.73,0,8.663,7.143,12.69,15.426,14.286l6.155,1.216c5.472,1.064,9.271,2.811,9.271,6.383,0,3.951-4.711,5.319-9.043,5.319-5.623,0-9.726-2.28-11.094-7.143Z" transform="translate(-382.812 -120.781)"/>
  <circle id="Ellipse_1_copie_3" data-name="Ellipse 1 copie 3" class="cls-3" cx="250.173" cy="188.219" r="14.235"/>
  <circle id="Ellipse_1_copie_4" data-name="Ellipse 1 copie 4" class="cls-3" cx="136.173" cy="188.219" r="14.235"/>
</svg>
